<?xml version="1.0" encoding="UTF-8"?>
<svg width="41px" height="30px" viewBox="0 0 41 30" version="1.1" xmlns="http://www.w3.org/2000/svg" xmlns:xlink="http://www.w3.org/1999/xlink">
    <title>back-arrow</title>
    <g id="Page-1" stroke="none" stroke-width="1" fill="none" fill-rule="evenodd">
        <g id="iPhone-8" transform="translate(-314.000000, -341.000000)" fill="#FFFFFF" fill-rule="nonzero">
            <g id="back-arrow" transform="translate(314.000000, 341.000000)">
                <path d="M40.1223947,30 C39.7704303,30 39.4476683,29.7701045 39.3093417,29.3930447 L39.3093417,29.3930447 C39.2079022,29.1194572 36.6719148,22.6287685 27.1903959,21.3432578 C25.2153996,21.0696703 22.850015,20.929369 19.9774329,20.9048163 L19.9774329,28.9949398 C19.9774329,29.368492 19.8006823,29.7069689 19.5101964,29.885853 C19.2212476,30.0577221 18.8754311,30.0331694 18.6064627,29.8279787 L0.390388364,15.8364319 C0.144474434,15.6487789 0,15.333101 0,15.0016392 C0,14.6666699 0.144474434,14.3615145 0.390388364,14.1650927 L18.6141475,0.171792113 C18.8831159,-0.040413599 19.2258584,-0.0544437287 19.5178812,0.120932892 C19.809904,0.299817046 19.9835807,0.638293925 19.9835807,1.00132353 L19.9835807,8.53024188 C23.9458689,9.11950732 41,12.6165171 41,29.0037086 C41,29.4789793 40.7064402,29.8946219 40.2945344,29.9893252 C40.2376668,30 40.1777253,30 40.1223947,30 Z" id="Path"></path>
            </g>
        </g>
    </g>
</svg>