<?xml version="1.0" encoding="UTF-8"?>
<svg width="32px" height="32px" viewBox="0 0 32 32" version="1.1" xmlns="http://www.w3.org/2000/svg" xmlns:xlink="http://www.w3.org/1999/xlink">
    <title>close_icon</title>
    <g id="Page-1" stroke="none" stroke-width="1" fill="none" fill-rule="evenodd">
        <g id="iPhone-8" transform="translate(-475.000000, -340.000000)" fill="#FFFFFF" fill-rule="nonzero">
            <g id="close_icon" transform="translate(475.000000, 340.000000)">
                <path d="M21.2800103,16.0010255 L31.1796449,6.10139072 C32.2734517,5.00758397 32.2734517,3.23424987 31.1796449,2.14215218 L29.8598988,0.822405992 C28.7657502,-0.271742636 26.992416,-0.271742636 25.9003183,0.822405992 L16.0010255,10.7216989 L6.10139072,0.820355061 C5.00758397,-0.273451687 3.23424987,-0.273451687 2.14215218,0.820355061 L0.820355061,2.14010124 C-0.273451687,3.23424987 -0.273451687,5.00758397 0.820355061,6.09968167 L10.7216989,16.0010255 L0.822405992,25.9003183 C-0.271742636,26.994467 -0.271742636,28.7678011 0.822405992,29.8598988 L2.14215218,31.1796449 C3.23595892,32.2734517 5.00929311,32.2734517 6.10139072,31.1796449 L16.0010255,21.2800103 L25.9003183,31.1796449 C26.994467,32.2734517 28.7678011,32.2734517 29.8598988,31.1796449 L31.1796449,29.8598988 C32.2734517,28.7657502 32.2734517,26.992416 31.1796449,25.9003183 L21.2800103,16.0010255 Z" id="Path"></path>
            </g>
        </g>
    </g>
</svg>